<?xml version="1.0" encoding="utf-8"?>
<!-- Generator: Adobe Illustrator 19.1.0, SVG Export Plug-In . SVG Version: 6.00 Build 0)  -->
<svg version="1.1" id="Camada_1" xmlns="http://www.w3.org/2000/svg" xmlns:xlink="http://www.w3.org/1999/xlink" x="0px" y="0px"
	 viewBox="-239.8 220.2 121.5 121.5" style="enable-background:new -239.8 220.2 121.5 121.5;" xml:space="preserve">
<style type="text/css">
	.st0{fill:#FFFFFF;}
	.st1{fill:url(#SVGID_1_);stroke:#800000;stroke-width:1.5;}
	.st2{fill:url(#SVGID_2_);stroke:#008000;stroke-width:1.5;}
	.st3{fill:url(#SVGID_3_);stroke:#000080;stroke-width:1.5;}
	.st4{fill:url(#SVGID_4_);stroke:#808000;stroke-width:1.5;}
	.st5{fill:url(#SVGID_5_);stroke:#008080;stroke-width:1.5;}
</style>
<rect x="-320" y="190" class="st0" width="282" height="182"/>
<g>
	
		<linearGradient id="SVGID_1_" gradientUnits="userSpaceOnUse" x1="-149" y1="373" x2="-149" y2="193" gradientTransform="matrix(1 0 0 -1 0 564)">
		<stop  offset="0" style="stop-color:#FFCCCC"/>
		<stop  offset="1" style="stop-color:#CC0000"/>
	</linearGradient>
	<path class="st1" d="M-179,281h60c0,20-10,38.8-26.7,49.9L-179,281z"/>
	
		<linearGradient id="SVGID_2_" gradientUnits="userSpaceOnUse" x1="-165.6918" y1="373" x2="-165.6918" y2="192.9997" gradientTransform="matrix(1 0 0 -1 0 564)">
		<stop  offset="0" style="stop-color:#CCFFCC"/>
		<stop  offset="1" style="stop-color:#00CC00"/>
	</linearGradient>
	<path class="st2" d="M-179,281l33.3,49.9c-11.8,7.9-26,11.3-40.1,9.7L-179,281z"/>
	
		<linearGradient id="SVGID_3_" gradientUnits="userSpaceOnUse" x1="-207.8275" y1="373" x2="-207.8275" y2="193" gradientTransform="matrix(1 0 0 -1 0 564)">
		<stop  offset="0" style="stop-color:#CCCCFF"/>
		<stop  offset="1" style="stop-color:#0000CC"/>
	</linearGradient>
	<path class="st3" d="M-179,281l-6.7,59.6c-24.1-2.7-44.2-19.7-50.9-43L-179,281z"/>
	
		<linearGradient id="SVGID_4_" gradientUnits="userSpaceOnUse" x1="-209.0057" y1="373" x2="-209.0057" y2="193" gradientTransform="matrix(1 0 0 -1 0 564)">
		<stop  offset="0" style="stop-color:#FFFFCC"/>
		<stop  offset="1" style="stop-color:#CCCC00"/>
	</linearGradient>
	<path class="st4" d="M-179,281l-57.7,16.6c-8.6-30,7.1-61.5,36.3-72.7L-179,281z"/>
	
		<linearGradient id="SVGID_5_" gradientUnits="userSpaceOnUse" x1="-159.6987" y1="373" x2="-159.6987" y2="192.9515" gradientTransform="matrix(1 0 0 -1 0 564)">
		<stop  offset="0" style="stop-color:#CCFFFF"/>
		<stop  offset="1" style="stop-color:#00CCCC"/>
	</linearGradient>
	<path class="st5" d="M-179,281l-21.4-56.1c31-11.8,65.6,3.7,77.5,34.7c2.6,6.8,3.9,14.1,3.9,21.4H-179z"/>
</g>
<rect x="-329" y="181" class="st0" width="10" height="201"/>
<rect x="-39" y="181" class="st0" width="11" height="202"/>
<rect x="-329" y="181" class="st0" width="301" height="10"/>
<rect x="-329" y="371" class="st0" width="301" height="12"/>
</svg>
