<?xml version="1.0" encoding="utf-8"?>
<!-- Generator: Adobe Illustrator 19.1.0, SVG Export Plug-In . SVG Version: 6.00 Build 0)  -->
<svg version="1.1" id="Camada_1" xmlns="http://www.w3.org/2000/svg" xmlns:xlink="http://www.w3.org/1999/xlink" x="0px" y="0px"
	 viewBox="-240.3 219.7 122.5 122.5" style="enable-background:new -240.3 219.7 122.5 122.5;" xml:space="preserve">
<style type="text/css">
	.st0{fill:#181818;}
	.st1{fill:url(#SVGID_1_);stroke:#EAF2CB;stroke-width:2.5;}
	.st2{fill:url(#SVGID_2_);stroke:#EAF2CB;stroke-width:2.5;}
	.st3{fill:url(#SVGID_3_);stroke:#EAF2CB;stroke-width:2.5;}
	.st4{fill:url(#SVGID_4_);stroke:#EAF2CB;stroke-width:2.5;}
	.st5{fill:url(#SVGID_5_);stroke:#EAF2CB;stroke-width:2.5;}
	.st6{fill:none;stroke:#181818;}
</style>
<rect x="-320" y="190" class="st0" width="282" height="182"/>
<g>
	
		<radialGradient id="SVGID_1_" cx="-179" cy="283" r="60" gradientTransform="matrix(1 0 0 -1 0 564)" gradientUnits="userSpaceOnUse">
		<stop  offset="0" style="stop-color:#ECC20C"/>
		<stop  offset="1" style="stop-color:#BF9E0A"/>
	</radialGradient>
	<path class="st1" d="M-179,281h60c0,20-10,38.8-26.7,49.9L-179,281z"/>
	
		<radialGradient id="SVGID_2_" cx="-179" cy="283" r="60" gradientTransform="matrix(1 0 0 -1 0 564)" gradientUnits="userSpaceOnUse">
		<stop  offset="0" style="stop-color:#95E5AF"/>
		<stop  offset="1" style="stop-color:#73B086"/>
	</radialGradient>
	<path class="st2" d="M-179,281l33.3,49.9c-11.8,7.9-26,11.3-40.1,9.7L-179,281z"/>
	
		<radialGradient id="SVGID_3_" cx="-179" cy="283" r="0" gradientTransform="matrix(1 0 0 -1 0 564)" gradientUnits="userSpaceOnUse">
		<stop  offset="0" style="stop-color:#ED2835"/>
		<stop  offset="1" style="stop-color:#C7212D"/>
	</radialGradient>
	<path class="st3" d="M-179,281l-6.7,59.6c-24.1-2.7-44.2-19.7-50.9-43L-179,281z"/>
	
		<radialGradient id="SVGID_4_" cx="-179" cy="283" r="60" gradientTransform="matrix(1 0 0 -1 0 564)" gradientUnits="userSpaceOnUse">
		<stop  offset="0" style="stop-color:#B6E557"/>
		<stop  offset="1" style="stop-color:#87AB41"/>
	</radialGradient>
	<path class="st4" d="M-179,281l-57.7,16.6c-8.6-30,7.1-61.5,36.3-72.7L-179,281z"/>
	
		<radialGradient id="SVGID_5_" cx="-179" cy="283" r="60.0081" gradientTransform="matrix(1 0 0 -1 0 564)" gradientUnits="userSpaceOnUse">
		<stop  offset="0" style="stop-color:#D37D2A"/>
		<stop  offset="1" style="stop-color:#B86C25"/>
	</radialGradient>
	<path class="st5" d="M-179,281l-21.4-56.1c31-11.8,65.6,3.7,77.5,34.7c2.6,6.8,3.9,14.1,3.9,21.4H-179z"/>
</g>
<rect x="-329" y="181" class="st0" width="10" height="201"/>
<rect x="-39" y="181" class="st0" width="11" height="202"/>
<rect x="-329" y="181" class="st0" width="301" height="10"/>
<rect x="-329" y="371" class="st0" width="301" height="12"/>
<rect x="-329" y="181" class="st6" width="299" height="199"/>
</svg>
