<?xml version="1.0" encoding="utf-8"?>
<!-- Generator: Adobe Illustrator 19.1.0, SVG Export Plug-In . SVG Version: 6.00 Build 0)  -->
<svg version="1.1" id="Camada_1" xmlns="http://www.w3.org/2000/svg" xmlns:xlink="http://www.w3.org/1999/xlink" x="0px" y="0px"
	 viewBox="-239.8 220.2 121.5 121.5" style="enable-background:new -239.8 220.2 121.5 121.5;" xml:space="preserve">
<style type="text/css">
	.st0{fill:#FFFFFF;}
	.st1{fill:#BFBC64;stroke:#BFBC64;stroke-width:1.5;}
	.st2{fill:#737130;stroke:#737130;stroke-width:1.5;}
	.st3{fill:#73373B;stroke:#73373B;stroke-width:1.5;}
	.st4{fill:#7DAFCA;stroke:#7DAFCA;stroke-width:1.5;}
	.st5{fill:#8D3C42;stroke:#8D3C42;stroke-width:1.5;}
</style>
<rect x="-320" y="190" class="st0" width="282" height="182"/>
<g>
	<path class="st1" d="M-179,281h60c0,20-10,38.8-26.7,49.9L-179,281z"/>
	<path class="st2" d="M-179,281l33.3,49.9c-11.8,7.9-26,11.3-40.1,9.7L-179,281z"/>
	<path class="st3" d="M-179,281l-6.7,59.6c-24.1-2.7-44.2-19.7-50.9-43L-179,281z"/>
	<path class="st4" d="M-179,281l-57.7,16.6c-8.6-30,7.1-61.5,36.3-72.7L-179,281z"/>
	<path class="st5" d="M-179,281l-21.4-56.1c31-11.8,65.6,3.7,77.5,34.7c2.6,6.8,3.9,14.1,3.9,21.4H-179z"/>
</g>
<rect x="-329" y="181" class="st0" width="10" height="201"/>
<rect x="-39" y="181" class="st0" width="11" height="202"/>
<rect x="-329" y="181" class="st0" width="301" height="10"/>
<rect x="-329" y="371" class="st0" width="301" height="12"/>
</svg>
